<svg xmlns="http://www.w3.org/2000/svg" version="1.1" xmlns:xlink="http://www.w3.org/1999/xlink" xmlns:svgjs="http://svgjs.dev/svgjs" width="1920" height="1080" preserveAspectRatio="none" viewBox="0 0 1920 1080"><g mask="url(&quot;#SvgjsMask8270&quot;)" fill="none"><rect width="1920" height="1080" x="0" y="0" fill="url(&quot;#SvgjsRadialGradient8271&quot;)"></rect><path d="M0 925.62L10 958.21L20 1016.01L30 1075.5L40 952.5L50 880.63L60 965.55L70 942.51L80 936.5L90 870.96L100 896.16L110 831.28L120 808.66L130 812.49L140 800.88L150 668.11L160 553.25L170 547.65L180 604.53L190 539.68L200 516.34L210 389.93L220 321.4L230 370.28L240 270.35L250 309.07L260 405.49L270 490.75L280 546.34L290 421.8L300 419.75L310 358.33L320 386.1L330 389.01L340 519.01L350 437.11L360 448.86L370 318.08L380 282.7L390 257.23L400 159.83L410 207.8L420 273.2L430 255.23L440 369.84L450 256.77L460 283.61L470 243.08L480 313.61L490 180.19L500 272.05L510 278.66L520 316.58L530 327.58L540 352.91L550 454.55L560 386.38L570 387.61L580 270.96L590 339.6L600 428.61L610 414.53L620 548.95L630 543.53L640 431.12L650 387.36L660 460.71L670 539.46L680 529.39L690 599.79L700 579.17L710 625.08L720 514.39L730 470.89L740 467.11L750 396.83L760 434.65L770 409.43L780 345.92L790 249.81L800 327.47L810 317.3L820 307.46L830 429.48L840 434.28L850 323.07L860 454.15L870 342.34L880 476.47L890 468.63L900 334.09L910 403.77L920 482.79L930 509.86L940 445.73L950 345.64L960 265.24L970 356.12L980 366.93L990 400.06L1000 281.44L1010 391.84L1020 518.39L1030 618.56L1040 640.71L1050 628.52L1060 498.71L1070 613.15L1080 501.88L1090 615.4L1100 696.35L1110 702.38L1120 778.77L1130 683.12L1140 723.02L1150 764.04L1160 671.71L1170 778.71L1180 676.98L1190 662.18L1200 634.39L1210 654.22L1220 620.97L1230 681.67L1240 605.03L1250 500.7L1260 466.12L1270 441.75L1280 542.05L1290 651.39L1300 611.53L1310 568.99L1320 459.17L1330 349.97L1340 255.35L1350 348.72L1360 468.56L1370 399.18L1380 445.65L1390 401.77L1400 364.82L1410 403.87L1420 302.92L1430 247.15L1440 226.02L1450 108.03L1460 23.28L1470 154.16L1480 97.3L1490 162.67L1500 180.49L1510 265.34L1520 314.9L1530 310.89L1540 195.13L1550 93.06L1560 180.14L1570 84.15L1580 201.79L1590 259.56L1600 232.63L1610 288.29L1620 178.05L1630 237.71L1640 300.84L1650 254.79L1660 339.01L1670 266.39L1680 387.6L1690 335.05L1700 207.67L1710 253.87L1720 180.72L1730 282.18L1740 254.28L1750 184.39L1760 103.6L1770 98.68L1780 66.69L1790 170.97L1800 70.81L1810 43.95L1820 75.25L1830 134.88L1840 100.01L1850 138.53L1860 70.54L1870 81.66L1880 96.28L1890 134.8L1900 187.28L1910 227.59L1920 252.43" stroke="rgba(255, 213, 0, 1)" stroke-width="2"></path><path d="M0 925.62L10 958.21L20 1016.01L30 1075.5L40 952.5L50 880.63L60 965.55L70 942.51L80 936.5L90 870.96L100 896.16L110 831.28L120 808.66L130 812.49L140 800.88L150 668.11L160 553.25L170 547.65L180 604.53L190 539.68L200 516.34L210 389.93L220 321.4L230 370.28L240 270.35L250 309.07L260 405.49L270 490.75L280 546.34L290 421.8L300 419.75L310 358.33L320 386.1L330 389.01L340 519.01L350 437.11L360 448.86L370 318.08L380 282.7L390 257.23L400 159.83L410 207.8L420 273.2L430 255.23L440 369.84L450 256.77L460 283.61L470 243.08L480 313.61L490 180.19L500 272.05L510 278.66L520 316.58L530 327.58L540 352.91L550 454.55L560 386.38L570 387.61L580 270.96L590 339.6L600 428.61L610 414.53L620 548.95L630 543.53L640 431.12L650 387.36L660 460.71L670 539.46L680 529.39L690 599.79L700 579.17L710 625.08L720 514.39L730 470.89L740 467.11L750 396.83L760 434.65L770 409.43L780 345.92L790 249.81L800 327.47L810 317.3L820 307.46L830 429.48L840 434.28L850 323.07L860 454.15L870 342.34L880 476.47L890 468.63L900 334.09L910 403.77L920 482.79L930 509.86L940 445.73L950 345.64L960 265.24L970 356.12L980 366.93L990 400.06L1000 281.44L1010 391.84L1020 518.39L1030 618.56L1040 640.71L1050 628.52L1060 498.71L1070 613.15L1080 501.88L1090 615.4L1100 696.35L1110 702.38L1120 778.77L1130 683.12L1140 723.02L1150 764.04L1160 671.71L1170 778.71L1180 676.98L1190 662.18L1200 634.39L1210 654.22L1220 620.97L1230 681.67L1240 605.03L1250 500.7L1260 466.12L1270 441.75L1280 542.05L1290 651.39L1300 611.53L1310 568.99L1320 459.17L1330 349.97L1340 255.35L1350 348.72L1360 468.56L1370 399.18L1380 445.65L1390 401.77L1400 364.82L1410 403.87L1420 302.92L1430 247.15L1440 226.02L1450 108.03L1460 23.28L1470 154.16L1480 97.3L1490 162.67L1500 180.49L1510 265.34L1520 314.9L1530 310.89L1540 195.13L1550 93.06L1560 180.14L1570 84.15L1580 201.79L1590 259.56L1600 232.63L1610 288.29L1620 178.05L1630 237.71L1640 300.84L1650 254.79L1660 339.01L1670 266.39L1680 387.6L1690 335.05L1700 207.67L1710 253.87L1720 180.72L1730 282.18L1740 254.28L1750 184.39L1760 103.6L1770 98.68L1780 66.69L1790 170.97L1800 70.81L1810 43.95L1820 75.25L1830 134.88L1840 100.01L1850 138.53L1860 70.54L1870 81.66L1880 96.28L1890 134.8L1900 187.28L1910 227.59L1920 252.43L1920 1080L0 1080z" fill="url(&quot;#SvgjsLinearGradient8272&quot;)"></path></g><defs><mask id="SvgjsMask8270"><rect width="1920" height="1080" fill="#ffffff"></rect></mask><radialGradient cx="100%" cy="50%" r="1994.49" gradientUnits="userSpaceOnUse" id="SvgjsRadialGradient8271"><stop stop-color="rgba(91, 94, 97, 1)" offset="1"></stop><stop stop-color="rgba(251, 255, 0, 1)" offset="1"></stop></radialGradient><linearGradient x1="50%" y1="0%" x2="50%" y2="100%" id="SvgjsLinearGradient8272"><stop stop-opacity="0.65" stop-color="rgba(255, 213, 0, 1)" offset="0"></stop><stop stop-opacity="0" stop-color="#fffae0" offset="0.8"></stop></linearGradient></defs></svg>